<svg width="200" height="200" viewBox="24.5 68.7 63.1 63.1" fill="none" xmlns="http://www.w3.org/2000/svg">
<path d="M39.7438 75.05L71.1625 75C75.7313 75.6375 79.2938 78.95 80.325 83.45C80.2438 93.3813 81.3188 104.431 80.5938 114.3C80.1688 120.05 76.2625 124.144 70.5375 124.756C60.9188 124.194 50.4375 125.513 40.925 124.769C35.7313 124.363 31.7188 120.669 30.8938 115.531L30.9188 84.0438C31.5938 79.425 35.1875 75.8875 39.75 75.0562L39.7438 75.05ZM65.0563 100.294C64.75 92.3 62.375 83.0625 55.6625 78.125L47.8688 85.9875C54.0375 86.3625 58.9375 90.8688 62.325 95.6688L65.0563 100.294ZM56.15 90.3438C49.0813 90.7625 40.5625 92.675 35.4438 97.9125C35.125 98.2375 33.9313 99.6188 34.0125 99.9438L41.8563 107.55C42.2188 101.931 46.0625 97.2563 50.3625 93.9875L56.1438 90.3438H56.15ZM55.325 109.206C61.0813 109 67.3813 107.669 72.2875 104.525C73.15 103.975 77.4188 100.7 77.2438 99.8063C77.1125 99.125 70.5375 93.3812 69.7188 92.2125C69.425 92.2125 69.1875 94.3875 69.05 94.8563C67.7688 99.2813 64.5938 102.719 61.1063 105.562L55.325 109.206ZM63.4 113.769C57.8875 113.25 53.3813 109.663 50.0688 105.45L46.2188 99.4563C46.5813 105.775 48.0375 112.6 51.8438 117.769C52.3813 118.494 54.75 121.3 55.4813 121.406C55.7188 121.444 55.8875 121.419 56.0625 121.237L63.4062 113.763L63.4 113.769Z" fill="#E30E2D"/>
</svg>
