<svg width="200" height="200" viewBox="769.1 -23.6 248.5 248.5" fill="none" xmlns="http://www.w3.org/2000/svg">
<g clip-path="url(#clip0_2_168)">
<mask id="mask0_2_168" style="mask-type:luminance" maskUnits="userSpaceOnUse" x="0" y="0" width="992" height="200">
<path d="M991.667 0H0V200H991.667V0Z" fill="white"/>
</mask>
<g mask="url(#mask0_2_168)">
<path d="M901.071 105.933H885.629V109.176H901.071V105.933Z" fill="#231F20"/>
<path d="M901.071 105.933H885.629V109.176H901.071V105.933Z" fill="#231F20"/>
<path d="M893.367 1.27023C903.783 1.27023 913.829 2.9082 923.275 5.95017L923.746 5.88329H946.05C946.217 28.7147 964.704 47.3008 987.413 47.3675V69.9316L987.346 70.1987C990.425 79.7929 992.1 90.0216 992.1 100.652C992.1 111.282 990.425 121.645 987.313 131.205L987.413 131.506V153.936C964.638 154.003 946.117 172.656 946.05 195.554H923.746L923.208 195.353C913.763 198.362 903.75 200 893.367 200C882.983 200 873.038 198.362 863.625 195.387L863.192 195.554H841.754C841.688 172.622 823.1 153.936 800.292 153.936C800.025 153.936 799.792 153.936 799.521 153.936V131.573C796.308 121.845 794.6 111.416 794.6 100.618C794.6 89.8212 796.342 79.425 799.521 69.6641V47.3008C799.754 47.3008 800.025 47.3008 800.292 47.3008C823.067 47.3008 841.621 28.6812 841.754 5.81646H863.625C873.004 2.84134 883.017 1.20337 893.367 1.20337" fill="#007F3E"/>
<path d="M893.367 26.3413C934.025 26.3413 967.183 59.7025 967.183 100.618C967.183 141.534 934.025 174.895 893.367 174.895C852.704 174.895 819.583 141.534 819.583 100.618C819.583 59.7025 852.738 26.3413 893.367 26.3413Z" fill="white"/>
<path d="M893.767 32.4921C931.046 32.4921 961.454 63.0787 961.454 100.618C961.454 138.158 931.046 168.745 893.767 168.745C856.492 168.745 826.079 138.158 826.079 100.618C826.079 63.0787 856.492 32.4921 893.767 32.4921Z" fill="#FFC80F" stroke="#231F20" stroke-width="0.24" stroke-miterlimit="2.61"/>
<path d="M868.146 151.329C875.479 148.42 884.154 146.816 893.329 146.749V137.356H862.683C862.921 142.537 864.896 147.318 868.146 151.329Z" fill="white"/>
<path d="M861.85 136.353C861.85 130.637 864.092 125.322 867.846 121.01C865.967 120.274 864.192 119.472 862.521 118.569H862.45C855.117 123.216 850.562 129.5 850.462 136.453H861.817C861.817 136.453 861.817 136.42 861.817 136.386L861.85 136.353Z" fill="white"/>
<path d="M863.088 154.738C869.621 158.516 877.725 161.056 886.129 162.026C878.929 160.555 872.7 157.045 868.346 152.265C866.504 153 864.729 153.802 863.088 154.705V154.738Z" fill="white"/>
<path d="M868.817 152.097C873.138 157.012 879.367 160.622 886.6 162.092C888.875 162.327 891.154 162.494 893.433 162.527L893.367 147.718C884.421 147.752 875.983 149.323 868.817 152.097Z" fill="white"/>
<path d="M861.917 137.356H850.529C850.829 143.874 855.083 149.825 861.883 154.337H861.917C863.725 153.268 865.667 152.365 867.675 151.529C864.229 147.485 862.15 142.604 861.883 137.356H861.917Z" fill="white"/>
<path d="M862.617 136.353C862.617 136.353 862.617 136.386 862.617 136.42H893.262V125.589C884.187 125.556 875.579 123.985 868.313 121.177C864.729 125.489 862.617 130.704 862.617 136.353Z" fill="white"/>
<path d="M925.683 136.353C925.683 136.353 925.683 136.386 925.683 136.42H937.038C936.938 129.433 932.35 123.082 924.913 118.402L924.679 118.536C923.071 119.405 921.363 120.174 919.588 120.909C923.408 125.255 925.683 130.603 925.683 136.353Z" fill="white"/>
<path d="M893.229 124.653L893.163 110.48C889.95 110.48 886.933 110.78 884.121 111.215C878.058 112.92 872.767 116.129 868.983 120.375C876.083 123.082 884.421 124.586 893.229 124.653Z" fill="white"/>
<path d="M883.654 111.282C874.642 112.72 867.746 115.862 863.725 118.101C865.233 118.87 866.875 119.539 868.546 120.174C872.367 116.095 877.625 112.953 883.654 111.248V111.282Z" fill="white"/>
<path d="M900.967 162.092C909.508 161.19 917.646 158.65 924.446 154.705C922.804 153.802 921.029 153 919.187 152.265C914.733 157.112 908.337 160.655 900.967 162.092Z" fill="white"/>
<path d="M894.271 147.685L894.338 162.494C896.413 162.494 898.488 162.327 900.533 162.126C907.933 160.722 914.329 157.078 918.717 152.064C911.583 149.256 903.179 147.719 894.271 147.685Z" fill="white"/>
<path d="M919.821 151.529C921.867 152.365 923.808 153.268 925.617 154.304H925.683C932.483 149.825 936.738 143.874 937.038 137.356H925.617C925.383 142.604 923.271 147.485 919.821 151.529Z" fill="white"/>
<path d="M924.846 137.356H894.233V146.749C903.413 146.816 912.05 148.42 919.354 151.329C922.6 147.318 924.579 142.537 924.813 137.356H924.846Z" fill="white"/>
<path d="M903.679 111.282C900.733 110.814 897.517 110.513 894.133 110.48L894.2 124.653C903.042 124.586 911.383 123.049 918.483 120.308C914.767 116.163 909.608 113.02 903.713 111.315L903.679 111.282Z" fill="white"/>
<path d="M923.475 118.101C919.588 115.928 913.058 112.953 904.55 111.449C910.246 113.154 915.2 116.196 918.888 120.074C920.458 119.438 922.033 118.837 923.475 118.101Z" fill="white"/>
<path d="M924.879 136.353C924.879 130.67 922.738 125.422 919.117 121.11C911.85 123.951 903.242 125.556 894.167 125.622V136.453H924.879C924.879 136.453 924.879 136.42 924.879 136.386V136.353Z" fill="white"/>
<path d="M902.242 110.279H885.258V104.73H902.242V110.279Z" fill="#231F20"/>
<path d="M888.846 54.8887H873.071V59.3012H888.846V54.8887Z" fill="white"/>
<path d="M888.846 54.8887H873.071V59.3345H888.846V54.8887Z" stroke="#231F20" stroke-width="0.28" stroke-miterlimit="2.61"/>
<path d="M888.846 54.8887H873.071V59.3012H888.846V54.8887Z" stroke="#231F20" stroke-width="0.04" stroke-miterlimit="2.61"/>
<path d="M888.846 59.4016H877.158V63.8141H888.846V59.4016Z" fill="white"/>
<path d="M888.846 59.4016H877.158V63.8474H888.846V59.4016Z" stroke="#231F20" stroke-width="0.28" stroke-miterlimit="2.61"/>
<path d="M888.846 59.4016H877.158V63.8141H888.846V59.4016Z" stroke="#231F20" stroke-width="0.04" stroke-miterlimit="2.61"/>
<path d="M888.846 63.9479H881.442V68.3604H888.846V63.9479Z" fill="white"/>
<path d="M888.846 63.9479H881.442V68.3937H888.846V63.9479Z" stroke="#231F20" stroke-width="0.28" stroke-miterlimit="2.61"/>
<path d="M888.846 63.9479H881.442V68.3604H888.846V63.9479Z" stroke="#231F20" stroke-width="0.06" stroke-miterlimit="2.61"/>
<path d="M900.367 89.6542H887.137V54.2204C888.175 31.2887 900.367 32.3584 900.367 54.3204V89.6542Z" fill="white"/>
<path d="M900.367 89.6542H887.137V54.2204C888.175 31.2887 900.367 32.3584 900.367 54.3204V89.6542Z" stroke="#231F20" stroke-width="0.28" stroke-miterlimit="2.61"/>
<path d="M884.592 91.1583H902.942C903.579 91.1583 904.117 91.7933 904.117 92.5621C904.117 93.3312 903.579 93.9662 902.942 93.9662H884.592C883.921 93.9662 883.383 93.3312 883.383 92.5621C883.383 91.7933 883.921 91.1583 884.592 91.1583Z" fill="#231F20"/>
<path d="M884.592 100.719H902.942C903.579 100.719 904.117 101.354 904.117 102.122C904.117 102.892 903.579 103.527 902.942 103.527H884.592C883.921 103.527 883.383 102.892 883.383 102.122C883.383 101.354 883.921 100.719 884.592 100.719Z" fill="#231F20"/>
<path d="M883.383 95.1029H904.117C904.854 95.1029 905.492 96.1058 905.492 97.3758C905.492 98.6462 904.888 99.6492 904.117 99.6492H883.383C882.65 99.6492 882.046 98.6129 882.046 97.3758C882.046 96.1392 882.65 95.1029 883.383 95.1029Z" fill="#231F20"/>
<path d="M893.767 109.443C869.387 109.443 849.558 121.645 849.558 136.62C849.558 151.596 869.387 163.798 893.767 163.798C918.15 163.798 937.979 151.596 937.979 136.62C937.979 121.645 918.15 109.443 893.767 109.443ZM919.592 120.909C921.367 120.207 923.075 119.405 924.679 118.536L924.917 118.402C932.35 123.082 936.971 129.433 937.042 136.42H925.687C925.687 136.42 925.687 136.386 925.687 136.353C925.687 130.603 923.408 125.255 919.592 120.909ZM919.187 152.298C921.029 153.034 922.804 153.836 924.446 154.738C917.65 158.683 909.508 161.223 900.971 162.126C908.338 160.689 914.733 157.145 919.187 152.298ZM900.567 162.16C898.525 162.36 896.446 162.494 894.371 162.527L894.304 147.718C903.179 147.785 911.621 149.323 918.754 152.098C914.367 157.112 907.967 160.755 900.567 162.16ZM894.304 146.783V137.389H924.85C924.613 142.57 922.637 147.351 919.387 151.362C912.087 148.454 903.412 146.85 894.304 146.783ZM894.271 136.453V125.623C903.279 125.556 911.887 123.985 919.154 121.11C922.771 125.422 924.917 130.67 924.917 136.353C924.917 136.353 924.917 136.386 924.917 136.42H894.271V136.453ZM918.954 120.14C915.271 116.263 910.312 113.221 904.621 111.516C913.125 113.02 919.658 115.995 923.542 118.168C922.104 118.904 920.529 119.539 918.954 120.14ZM903.717 111.349C909.642 113.054 914.767 116.229 918.483 120.341C911.383 123.082 903.046 124.653 894.204 124.687L894.138 110.513C897.554 110.513 900.733 110.848 903.683 111.315L903.717 111.349ZM925.654 154.371C923.846 153.335 921.9 152.432 919.858 151.596C923.308 147.551 925.417 142.671 925.654 137.423H937.075C936.771 143.975 932.517 149.891 925.721 154.404H925.654V154.371ZM868.213 151.362C864.967 147.351 862.988 142.57 862.754 137.389H893.367V146.783C884.258 146.816 875.55 148.42 868.246 151.362H868.213ZM868.379 152.332C872.733 157.078 878.962 160.622 886.167 162.093C877.758 161.123 869.654 158.583 863.121 154.805C864.763 153.903 866.537 153.1 868.379 152.365V152.332ZM862.687 136.453C862.687 136.453 862.687 136.42 862.687 136.386C862.687 130.737 864.796 125.523 868.379 121.21C875.65 124.018 884.258 125.589 893.3 125.623V136.453H862.687ZM869.05 120.408C872.838 116.163 878.092 112.92 884.188 111.248C887.004 110.814 890.017 110.547 893.233 110.513L893.3 124.687C884.492 124.653 876.15 123.115 869.05 120.408ZM868.583 120.207C866.942 119.572 865.267 118.904 863.758 118.135C867.813 115.862 874.679 112.753 883.688 111.315C877.658 112.987 872.4 116.129 868.583 120.241V120.207ZM867.879 121.01C864.129 125.355 861.883 130.637 861.883 136.353C861.883 136.353 861.883 136.386 861.883 136.42H850.529C850.629 129.5 855.15 123.183 862.521 118.503H862.587C864.262 119.438 866.037 120.241 867.912 120.976L867.879 121.01ZM850.529 137.389H861.917C862.15 142.638 864.263 147.518 867.713 151.563C865.667 152.398 863.725 153.301 861.95 154.337H861.917C855.117 149.858 850.867 143.908 850.562 137.389H850.529ZM886.6 162.093C879.367 160.622 873.138 157.012 868.817 152.098C875.983 149.29 884.425 147.752 893.367 147.718L893.433 162.527C891.154 162.527 888.879 162.36 886.6 162.093Z" fill="#231F20"/>
<path d="M901.304 105.666H886.2V108.842H901.304V105.666Z" fill="white"/>
</g>
</g>
<defs>
<clipPath id="clip0_2_168">
<rect width="991.667" height="200" fill="white"/>
</clipPath>
</defs>
</svg>
