<svg width="200" height="200" viewBox="69.6 43.5 63.5 63.5" fill="none" xmlns="http://www.w3.org/2000/svg">
<path d="M121.181 67.1625C121.081 67.0625 120.981 66.9562 120.881 66.8437C120.238 65.9312 119.581 65.0125 118.931 64.1C118.763 63.8125 118.594 63.5437 118.438 63.2562C118.306 63 118.113 62.9312 117.831 62.9312C116.65 62.95 115.481 62.9437 114.3 62.9437H113.713C113.681 62.5562 113.663 62.2125 113.631 61.875C113.631 60.8125 113.613 59.7625 113.619 58.7C113.619 58.45 113.469 58.35 113.3 58.2437C112.231 57.5375 111.156 56.825 110.088 56.1125C109.95 56.025 109.819 55.9125 109.694 55.8125C110.369 55.9188 111.031 56.0187 111.694 56.1312C112.744 56.3125 113.806 56.5062 114.856 56.6875C115.9 56.875 116.938 57.0562 117.981 57.2312C118.288 57.2812 118.594 57.3375 118.9 57.3875C119.325 57.45 119.394 57.5062 119.475 57.925C119.656 58.8375 119.813 59.75 119.988 60.65C120.306 62.3062 120.631 63.95 120.938 65.6062C121.038 66.1187 121.094 66.65 121.163 67.1625H121.181Z" fill="#E6DAC8"/>
<path d="M93.0001 55.7875C92.9001 55.875 92.7938 55.975 92.6938 56.0625C92.0001 56.5313 91.2939 56.9938 90.6001 57.45C90.1939 57.7063 89.8063 57.975 89.3938 58.2063C89.1438 58.3438 89.0438 58.525 89.0438 58.7938V60.4688C89.0251 61.0938 89.0126 61.725 89.0064 62.35C89.0001 62.7438 88.8064 62.9375 88.4314 62.9375C87.2439 62.9375 86.0501 62.95 84.8626 62.925C84.5376 62.925 84.3188 63.0063 84.2188 63.3313C83.4938 64.3625 82.7813 65.3813 82.0563 66.4125C81.8563 66.6875 81.6501 66.9688 81.4438 67.2438C81.5501 66.6063 81.6439 65.975 81.7626 65.3438C82.0501 63.825 82.3563 62.3 82.6438 60.7813C82.8251 59.8375 82.9814 58.9 83.1689 57.9563C83.2564 57.45 83.2751 57.4625 83.7939 57.3688C84.8251 57.2125 85.8439 57.0188 86.8689 56.8438C88.1564 56.625 89.4376 56.4063 90.7126 56.1813C91.3751 56.0625 92.0438 55.925 92.7064 55.8063C92.8064 55.7875 92.9063 55.7938 93.0063 55.7875H93.0001Z" fill="#E6DAC8"/>
<path d="M121.2 83.375C121.119 83.8813 121.063 84.3938 120.975 84.8938C120.619 86.7563 120.263 88.6188 119.906 90.4813C119.756 91.225 119.631 91.9688 119.487 92.7125C119.456 92.8438 119.4 92.9625 119.35 93.1063C118.15 93.3125 116.944 93.525 115.744 93.7313C114.106 94.0188 112.475 94.3188 110.838 94.6125C110.619 94.6438 110.413 94.6937 110.206 94.7125C110.119 94.7125 110.025 94.65 109.938 94.625C110.069 94.525 110.188 94.4063 110.325 94.3188C110.931 93.9 111.544 93.4875 112.156 93.0688C112.513 92.8438 112.869 92.5938 113.237 92.3875C113.537 92.2188 113.644 92.0125 113.631 91.675C113.619 90.85 113.644 90.0188 113.663 89.2C113.675 88.6938 113.713 88.1875 113.731 87.6812C113.888 87.6625 114.006 87.65 114.125 87.6438C115.394 87.6438 116.675 87.6563 117.944 87.6625C118.194 87.6625 118.3 87.5313 118.413 87.3625C119.106 86.35 119.8 85.3375 120.506 84.3375C120.731 84.0125 120.975 83.6937 121.213 83.375H121.2Z" fill="#E6DAC8"/>
<path d="M92.9126 94.725C92.3563 94.6438 91.8001 94.5875 91.2501 94.5C90.1501 94.3125 89.0376 94.125 87.9376 93.925C86.9251 93.7563 85.9251 93.5688 84.9251 93.3813C84.4814 93.3 84.0439 93.2125 83.6064 93.1563C83.3689 93.125 83.2688 93.025 83.2313 92.7875C83.0813 91.9563 82.9063 91.1313 82.7438 90.3125C82.4876 88.9813 82.2376 87.6563 81.9813 86.325C81.8001 85.425 81.6251 84.5125 81.4563 83.6063C81.4438 83.525 81.4564 83.4375 81.4689 83.3563C81.5314 83.425 81.6001 83.4938 81.6563 83.575C81.9813 84.0438 82.3189 84.5063 82.6501 84.975C83.2126 85.8 83.7813 86.6313 84.3376 87.4625C84.4438 87.6188 84.5751 87.6625 84.7563 87.6625C85.2126 87.65 85.6751 87.6438 86.1313 87.6438C87.0751 87.6563 88.0126 87.6625 88.9876 87.675C89.0001 87.8813 89.0063 88.0438 89.0188 88.2C89.0313 89.2313 89.0376 90.2625 89.0501 91.2938C89.0563 91.9125 89.3501 92.3688 89.9251 92.6625C90.7689 93.225 91.6188 93.8 92.4626 94.375C92.6188 94.4813 92.7688 94.6125 92.9313 94.7313H92.9126V94.725Z" fill="#E6DAC8"/>
<path d="M96.7001 87.3625C96.6188 87.3125 96.5501 87.2313 96.4813 87.1625C96.6626 87.1813 96.8376 87.1938 97.0188 87.225C98.1001 87.4313 99.1813 87.7188 100.269 87.8313C101.3 87.9375 102.35 87.9313 103.369 87.7125C104.3 87.5063 105.231 87.2875 106.163 87.075C106.225 87.0625 106.294 87.075 106.363 87.075C105.988 87.3313 105.606 87.6125 105.231 87.8688C104.381 88.4625 103.863 89.4375 103 90.0188C102.575 90.2938 102.006 90.725 101.569 91.0063C101.469 90.9563 99.7251 90.2188 99.6376 90.1625" fill="#E6DAC8"/>
<path d="M86.0751 75.375C86.0938 75.2875 86.0938 75.175 86.1563 75.1063C87.2438 73.5313 88.3376 71.9563 89.4376 70.3813C89.4563 70.35 89.4876 70.3438 89.5188 70.3188C89.5063 70.4 89.5188 70.4875 89.4876 70.5688C89.0938 71.7375 88.8813 72.9563 88.7563 74.1875C88.6688 74.9813 88.7188 75.8063 88.8188 76.5938C88.9563 77.6375 89.2063 78.6625 89.4063 79.6938C89.4376 79.825 89.4188 79.9625 89.4251 80.0875C89.3063 79.95 89.1876 79.8188 89.0876 79.6688" fill="#E6DAC8"/>
<path d="M116.619 75.2063C116.569 75.325 116.531 75.4563 116.463 75.5625C115.463 77 114.469 78.425 113.469 79.8625C113.406 79.95 113.319 80.0313 113.244 80.1188C113.325 79.75 113.4 79.375 113.469 79.0063C113.625 78.0938 113.788 77.1938 113.925 76.2813C114.175 74.5438 113.744 72.8813 113.369 71.2063L113.219 70.4313C113.388 70.65 113.575 70.85 113.731 71.075C114.188 71.7 114.631 72.3313 115.081 72.9688C115.594 73.7125 116.113 74.4563 116.619 75.2V75.2063Z" fill="#E6DAC8"/>
<path d="M106.244 63.4625C105.988 63.4125 105.731 63.375 105.469 63.3125C104.4 63.0438 103.319 62.8563 102.225 62.7375C100.819 62.5688 99.4688 62.8375 98.1188 63.0938C97.5313 63.2 96.9563 63.3313 96.3813 63.4625C96.7751 63.1625 97.1751 62.8688 97.5813 62.5688C98.2438 62.125 98.9188 61.675 99.5813 61.2313C100.144 60.8625 100.7 60.4875 101.256 60.1188C101.394 60.1813 101.531 60.225 101.65 60.3063C103.088 61.2563 104.525 62.2313 105.963 63.1938C106.063 63.2625 106.144 63.375 106.231 63.4625H106.244Z" fill="#E6DAC8"/>
<path d="M108.55 95.4562C108.45 95.5375 108.35 95.625 108.244 95.6937C106.075 97.1312 103.9 98.5687 101.744 100.012C101.425 100.231 101.219 100.212 100.913 100C98.4126 98.325 95.9001 96.6625 93.3813 94.9937C93.2313 94.8937 93.0751 94.8062 92.9126 94.7187C92.7563 94.6 92.6063 94.4687 92.4438 94.3625C91.6001 93.7875 90.7501 93.2125 89.9064 92.65C89.3314 92.3562 89.0376 91.9 89.0313 91.2812C89.0188 90.25 89.0126 89.2187 89.0001 88.1875C88.9876 88.0312 88.9814 87.8687 88.9689 87.6625C88.0001 87.65 87.0563 87.6437 86.1126 87.6312C85.6563 87.6312 85.1938 87.6437 84.7376 87.65C84.5563 87.65 84.4313 87.6125 84.3188 87.45C83.7626 86.6187 83.2001 85.7875 82.6314 84.9625C82.3064 84.4937 81.9688 84.0312 81.6376 83.5625C81.5751 83.4812 81.5064 83.4125 81.4501 83.3437C81.3001 83.0937 81.1501 82.8562 81.0063 82.6125C81.3313 82.1 81.6501 81.5812 82.0001 81.075C82.7313 80.0062 83.4876 78.9437 84.2313 77.875C84.7688 77.1 85.3001 76.3312 85.8501 75.5625C85.9001 75.4812 86.0001 75.4312 86.0689 75.3625C86.4564 75.925 86.8439 76.4937 87.2314 77.0562C87.8439 77.9312 88.4626 78.8 89.0751 79.6625C89.1751 79.8125 89.2938 79.9375 89.4126 80.0812C89.4313 80.1187 89.4626 80.1625 89.4938 80.2125C89.6438 80.4625 89.7938 80.7062 89.9376 80.9687C90.4063 81.625 90.8813 82.275 91.3438 82.9437C91.4813 83.1437 91.6439 83.3375 91.7626 83.5562C92.2376 84.4062 92.9689 84.9937 93.7939 85.4687C93.9501 85.55 94.1188 85.625 94.2688 85.7187C94.9626 86.175 95.6563 86.6312 96.3501 87.075C96.3876 87.1062 96.4376 87.1375 96.4813 87.1562C96.5501 87.225 96.6188 87.3062 96.7001 87.3562C98.1563 88.3375 99.6126 89.3187 101.069 90.3C101.156 90.3625 101.269 90.4062 101.369 90.4562C101.475 90.5562 101.575 90.6625 101.694 90.7562C102.05 91.0062 102.406 91.2312 102.763 91.4812C104.094 92.375 105.419 93.2625 106.738 94.1687C107.35 94.5875 107.944 95.0312 108.55 95.4562Z" fill="url(#paint0_linear_2_498)"/>
<path d="M126.731 75.275C126.631 75.4313 126.531 75.6 126.425 75.7625C124.769 78.1625 123.113 80.5625 121.456 82.9563C121.369 83.0938 121.275 83.2313 121.2 83.375C120.963 83.6938 120.725 84.0063 120.494 84.3375C119.788 85.3375 119.094 86.35 118.4 87.3625C118.294 87.5313 118.181 87.6625 117.931 87.6625C116.663 87.65 115.381 87.6438 114.113 87.6438C113.994 87.6563 113.875 87.6625 113.719 87.6813C113.7 88.1875 113.656 88.6938 113.65 89.2C113.631 90.025 113.613 90.8563 113.619 91.675C113.631 92.0125 113.519 92.2188 113.225 92.3875C112.856 92.5938 112.5 92.8438 112.144 93.0688C111.531 93.4875 110.913 93.9 110.313 94.3188C110.175 94.4063 110.056 94.525 109.925 94.625C109.625 94.8125 109.319 95 109.013 95.1875C108.863 95.2875 108.706 95.3688 108.544 95.4563C107.938 95.0313 107.344 94.5813 106.731 94.1688C105.413 93.2688 104.088 92.375 102.756 91.4813C102.4 91.2313 102.044 91.0063 101.688 90.7563C101.569 90.6688 101.469 90.5563 101.363 90.4563C101.8 90.1813 102.225 89.9 102.65 89.625C103.513 89.0375 104.375 88.4563 105.225 87.8625C105.6 87.6063 105.981 87.325 106.356 87.0688C106.988 86.65 107.613 86.2375 108.25 85.8313C108.4 85.7313 108.556 85.6438 108.719 85.5563C109.044 85.3188 109.375 85.0688 109.719 84.85C110.088 84.6125 110.381 84.325 110.631 83.9563C111.256 83.025 111.913 82.1125 112.544 81.1938C112.781 80.8438 113.013 80.4813 113.238 80.125C113.319 80.0375 113.406 79.9563 113.463 79.8688C114.463 78.4313 115.456 77.0063 116.456 75.5688C116.525 75.4625 116.563 75.3313 116.613 75.2125C116.731 75.1063 116.863 75.0125 116.963 74.8875C117.2 74.5625 117.438 74.2125 117.669 73.875C119.019 71.925 120.356 69.9813 121.7 68.025C122.156 68.6688 122.619 69.3125 123.069 69.9688C124.2 71.6063 125.331 73.2375 126.456 74.875C126.538 74.9938 126.613 75.125 126.725 75.2813L126.731 75.275Z" fill="url(#paint1_linear_2_498)"/>
<path d="M121.7 68.025C120.35 69.975 119.013 71.9188 117.669 73.875C117.444 74.2125 117.2 74.5563 116.963 74.8875C116.863 75.0188 116.738 75.1063 116.613 75.2125C116.106 74.4688 115.594 73.725 115.075 72.9813C114.631 72.35 114.181 71.7125 113.725 71.0875C113.569 70.8625 113.375 70.6625 113.213 70.4438C113.194 70.4313 113.181 70.4125 113.181 70.3938C112.763 69.7688 112.35 69.1375 111.931 68.5C111.425 67.7563 110.919 67.0125 110.413 66.2625C110.244 66.1313 110.088 65.9875 109.919 65.8688C109 65.2438 108.088 64.6313 107.163 64.0125C106.856 63.8125 106.538 63.6438 106.231 63.4688C106.144 63.3813 106.063 63.2688 105.963 63.2C104.525 62.2375 103.088 61.2688 101.65 60.3125C101.531 60.2313 101.394 60.1813 101.256 60.125C101.175 60.0438 101.106 59.9438 101.019 59.8875C98.8313 58.3938 96.6251 56.8813 94.4251 55.3875C94.2876 55.3 94.1251 55.2563 93.9813 55.1875C95.3313 54.2875 96.6751 53.3813 98.0251 52.4813C99.1126 51.7563 100.206 51.0313 101.325 50.2938C101.475 50.3938 101.625 50.4938 101.769 50.5938C104.269 52.25 106.763 53.9063 109.275 55.5625C109.406 55.6625 109.55 55.7438 109.694 55.8188C109.825 55.9188 109.95 56.025 110.088 56.1188C111.156 56.8313 112.231 57.5438 113.3 58.25C113.469 58.3563 113.619 58.4563 113.619 58.7063C113.606 59.7688 113.631 60.8188 113.631 61.8813C113.663 62.2188 113.681 62.5625 113.713 62.95H114.3C115.481 62.95 116.65 62.9625 117.831 62.9375C118.106 62.9375 118.306 63.0063 118.438 63.2625C118.594 63.55 118.763 63.8188 118.931 64.1063C119.588 65.0188 120.238 65.9375 120.881 66.85C120.981 66.9563 121.081 67.0688 121.181 67.1688C121.363 67.4563 121.531 67.7438 121.706 68.0313H121.7V68.025Z" fill="url(#paint2_linear_2_498)"/>
<path d="M101.269 60.125C100.713 60.4938 100.156 60.8688 99.5938 61.2375C98.9313 61.6813 98.2563 62.1313 97.5938 62.575C97.1876 62.875 96.7938 63.1688 96.3938 63.4688C96.3438 63.4875 96.3063 63.5188 96.2626 63.55C95.8188 63.825 95.3626 64.0938 94.9126 64.375C94.3188 64.7938 93.7438 65.2375 93.1313 65.6063C92.4063 66.0313 91.9626 66.6875 91.5126 67.3438C91.3751 67.55 91.2251 67.75 91.0876 67.9563C90.9813 68.1375 90.8688 68.3125 90.7501 68.4938C90.3313 69.1063 89.9188 69.725 89.5126 70.3375C89.4813 70.3563 89.4501 70.3688 89.4313 70.4C88.3313 71.975 87.2438 73.55 86.1501 75.125C86.0876 75.1938 86.0876 75.3063 86.0688 75.3938C86.0001 75.4625 85.9001 75.5125 85.8501 75.5938C85.3063 76.3563 84.7688 77.1313 84.2313 77.9063C83.4876 78.975 82.7376 80.0375 82.0001 81.1063C81.6501 81.6125 81.3376 82.125 81.0063 82.6438C80.0876 81.325 79.1626 80.0063 78.2501 78.6875C77.5751 77.7188 76.9126 76.7438 76.2376 75.7813C76.1376 75.625 76.0376 75.475 75.9188 75.2938C76.0501 75.1125 76.1688 74.9375 76.2876 74.7563C77.9438 72.3563 79.6001 69.9563 81.2563 67.5625C81.3251 67.4625 81.3751 67.3625 81.4376 67.2625C81.6438 66.9875 81.8563 66.7063 82.0501 66.4313C82.7751 65.4 83.4876 64.3813 84.2126 63.35C84.3126 63.025 84.5313 62.9438 84.8563 62.9438C86.0438 62.9625 87.2376 62.9563 88.4251 62.9563C88.8001 62.9563 88.9938 62.7625 89.0001 62.3688C89.0126 61.7438 89.0188 61.1125 89.0376 60.4875V58.8125C89.0376 58.5438 89.1376 58.3688 89.3876 58.225C89.8063 58 90.1876 57.7313 90.5938 57.4688C91.2876 57.0125 91.9938 56.55 92.6876 56.0813C92.7876 55.9938 92.8938 55.8938 92.9938 55.8063C93.3188 55.6063 93.6563 55.4 93.9876 55.2C94.1376 55.2688 94.2938 55.3063 94.4313 55.4C96.6313 56.8938 98.8313 58.4063 101.025 59.9C101.113 59.9625 101.181 60.0563 101.263 60.1375V60.125H101.269Z" fill="url(#paint3_linear_2_498)"/>
<path d="M107.769 75.275C107.212 75.9625 106.569 76.4625 105.956 77.0062V79.6437C105.75 79.6625 105.612 79.6812 105.475 79.6812C104.881 79.6812 104.287 79.6812 103.687 79.6937C103.506 79.6937 103.344 79.7562 103.163 79.7812C102.588 80.325 102.013 80.8625 101.456 81.375C100.919 80.8687 100.35 80.325 99.775 79.7937C99.5875 79.7562 99.4 79.6937 99.2 79.6937C98.5 79.675 97.7937 79.6812 97.0375 79.6812C96.95 79.2187 97 78.7812 96.9875 78.3437C96.9875 77.9 96.9875 77.45 96.9875 77.0062C96.95 77.0062 96.9063 77.0062 96.8875 76.9875C96.3125 76.4375 95.7437 75.8937 95.125 75.3C95.7437 74.7062 96.3125 74.15 96.875 73.6062C96.9188 73.4187 96.975 73.2187 96.9875 73.0312C96.9875 72.3562 96.9875 71.6812 96.9875 70.9375C97.9 70.9 98.7813 70.9375 99.6625 70.9187C100.281 70.3437 100.894 69.7687 101.544 69.1437C102.1 69.7062 102.681 70.3125 103.269 70.9187H105.906C105.925 71.0937 105.944 71.225 105.944 71.35C105.95 71.925 105.944 72.5 105.95 73.075C105.95 73.2562 106.012 73.4375 106.05 73.6C106.612 74.1437 107.181 74.7 107.763 75.2625V75.275H107.769Z" fill="#E6DAC8"/>
<defs>
<linearGradient id="paint0_linear_2_498" x1="84.3188" y1="80.025" x2="102.044" y2="96.7687" gradientUnits="userSpaceOnUse">
<stop stop-color="#B04344"/>
<stop offset="1" stop-color="#DE4148"/>
</linearGradient>
<linearGradient id="paint1_linear_2_498" x1="104.725" y1="92.8313" x2="123.181" y2="74.6188" gradientUnits="userSpaceOnUse">
<stop stop-color="#B04344"/>
<stop offset="1" stop-color="#DE4148"/>
</linearGradient>
<linearGradient id="paint2_linear_2_498" x1="120.831" y1="71.5438" x2="100.906" y2="55.1625" gradientUnits="userSpaceOnUse">
<stop stop-color="#B04344"/>
<stop offset="1" stop-color="#DE4148"/>
</linearGradient>
<linearGradient id="paint3_linear_2_498" x1="96.2438" y1="57.575" x2="80.1126" y2="76.5188" gradientUnits="userSpaceOnUse">
<stop stop-color="#B04344"/>
<stop offset="1" stop-color="#DE4148"/>
</linearGradient>
</defs>
</svg>
