<svg width="200" height="200" viewBox="73.4 50.7 55.1 55.1" fill="none" xmlns="http://www.w3.org/2000/svg">
<path d="M84.6125 56.2813L117 56.25C120 56.5938 122.375 59 122.65 62.0125V93.7812C122.4 97.3688 119.613 99.7125 116.094 99.8C106.181 99.4062 95.8562 100.331 85.9937 99.8063C82.3 99.6125 79.7375 97.8313 79.1875 94.0375V61.8875C79.5312 58.9937 81.7313 56.7063 84.6125 56.2813ZM100.444 59.5188C91.1 59.7 84.9125 69.0875 88.175 77.8C88.2938 78.1125 88.8375 79.6437 89.225 79.575C89.725 79.4812 91.5125 77.2625 92.1437 76.9125C89.175 71.65 92.825 64.8375 98.5375 63.6C105.375 62.1188 111.406 67.9125 110.131 74.8C109.288 79.3875 105.119 81.5937 102.294 84.8687L102.4 85.2375L104.919 87.6188C107.881 84.3938 111.787 81.8687 113.306 77.5812C116.456 68.7 109.894 59.3437 100.438 59.525L100.444 59.5188ZM104.45 66.6375L86.975 84.05C81.3875 91.3312 90.425 100.269 97.8063 94.7437C98.1063 94.5187 99.7938 93.0125 99.8875 92.8063C100.006 92.5438 97.75 90.3438 97.4187 89.975C96.7375 90.35 96.3125 91.0313 95.725 91.5063C91.5188 94.925 86.9562 90.0687 90.2812 86.0625L107.019 69.3375C107.144 69.1563 107.081 69.0125 107.019 68.8312C106.825 68.3 105.025 66.4938 104.456 66.6375H104.45ZM104.969 74.2812C104.8 74.325 102.538 76.6188 102.538 76.7938C103.231 77.775 104.25 78.5563 105.069 79.45C105.344 79.0188 107.756 77.0312 107.719 76.8125C107.688 76.6438 105.55 74.5312 105.337 74.3875C105.206 74.3 105.15 74.2312 104.969 74.2812ZM112.744 81.925C112.388 82.3313 110.194 84.2625 110.194 84.575C110.194 84.8188 111.338 85.6688 111.619 86.0063C115.062 90.0812 109.719 94.7375 105.981 91.25L96.8688 82.1937L96.5 82.3C96.1937 82.8125 94.1 84.2625 94.1 84.7062L94.2937 85.0375C99.3562 89.0625 105.194 99.8375 112.9 95.2C118.056 92.0938 117.525 85.075 112.731 81.9312L112.744 81.925Z" fill="#735D46"/>
</svg>
