<svg width="200" height="200" viewBox="54.1 47.8 84.5 84.5" fill="none" xmlns="http://www.w3.org/2000/svg">
<path d="M124.894 104.087L126.431 107.937C126.431 107.937 101.906 95.1812 69.3563 112.006C69.1625 111.844 69.7125 111.569 70.9813 110.531C72.3938 109.369 73.8563 108.294 75.3813 107.287C85.1 100.9 97.4 97.9625 108.975 99.0812C112.494 99.4187 116 100.037 119.35 101.2C120.956 101.756 122.619 102.556 124.894 104.087Z" fill="#E87200"/>
<path d="M68.25 86.8C64.0187 73.6813 74.7562 70.3187 74.7562 70.3187C86.575 66.7375 100.35 75.525 100.35 75.525L119 90.275C127.212 98.825 129.494 105.681 129.531 110.637C129.556 105.6 127.281 98.5812 118.85 89.8062L99.9312 74.85C99.9312 74.85 85.9625 65.9437 73.975 69.5687C73.975 69.5687 63.0875 72.975 67.375 86.2875C67.375 86.2875 73.3125 105.312 94.1 117.081C94.1 117.081 105.687 123.819 115.825 123.756C105.875 123.731 94.5937 117.175 94.5937 117.175C74.1 105.575 68.2437 86.8125 68.2437 86.8125L68.25 86.8Z" fill="#54565A" fill-opacity="0.5"/>
<path d="M129.525 110.625C129.494 105.675 127.206 98.8187 118.994 90.2625L100.344 75.5125C100.344 75.5125 86.575 66.7312 74.75 70.3062C74.75 70.3062 64.0125 73.6687 68.2437 86.7875C68.2437 86.7875 74.1 105.55 94.5937 117.15C94.5937 117.15 105.875 123.706 115.825 123.731C119.756 123.706 123.475 122.662 126.212 119.806C126.212 119.806 129.494 116.619 129.525 110.619V110.625ZM106.256 121.019C100.219 119.587 94.5312 116.669 89.4812 113.112C84.6812 109.731 80.3 105.062 78.1437 99.5312C76.3062 94.8062 74.9 89.3562 76.725 84.4125C78.475 79.6687 82.7625 76.625 87.7562 76.25C90.4875 76.0437 93.6937 76.3875 96.3187 77.2C97.0875 77.4375 97.8687 77.6875 98.6062 78.025L119.394 91.55C125 95.8375 126.981 105.181 126.981 105.187C128.025 110.125 127.575 114.869 124.244 118.812C120.044 123.781 111.75 122.319 106.25 121.019H106.256Z" fill="url(#paint0_linear_2_97)"/>
<path d="M107.738 56.25C107.738 56.25 99.6 83.7438 80.3563 101.45C80.3563 101.45 94.6563 94.6313 99.3813 94.9625C99.3813 94.9625 106.531 86.825 107.738 82.8625L111.588 93.75C111.588 93.75 119.725 94.7375 121.156 95.5125L107.738 56.25Z" fill="#0055B8"/>
<path d="M107.6 58.725C107.6 58.725 97.95 87.5938 79.475 102.35C79.475 102.35 96.5438 94.5563 100.756 94.85C100.756 94.85 106.525 88.3938 107.6 84.8688L111.063 95.5938C111.063 95.5938 118.2 95.9125 119.475 96.6L107.594 58.725H107.6Z" fill="url(#paint1_linear_2_97)"/>
<defs>
<linearGradient id="paint0_linear_2_97" x1="72.5187" y1="70.9937" x2="123.781" y2="122.256" gradientUnits="userSpaceOnUse">
<stop stop-color="#54565A"/>
<stop offset="1" stop-color="#54565A" stop-opacity="0.5"/>
</linearGradient>
<linearGradient id="paint1_linear_2_97" x1="99.475" y1="58.725" x2="99.475" y2="102.35" gradientUnits="userSpaceOnUse">
<stop stop-color="white" stop-opacity="0.5"/>
<stop offset="0.21" stop-color="#BED4ED" stop-opacity="0.37"/>
<stop offset="0.57" stop-color="#578FD0" stop-opacity="0.17"/>
<stop offset="0.85" stop-color="#1865BE" stop-opacity="0.05"/>
<stop offset="1" stop-color="#0055B8" stop-opacity="0"/>
</linearGradient>
</defs>
</svg>
