<svg width="200" height="200" viewBox="71.4 50.5 57.3 57.3" fill="none" xmlns="http://www.w3.org/2000/svg">
<path fill-rule="evenodd" clip-rule="evenodd" d="M83.5312 101.219H116.65C119.669 101.219 122.131 98.75 122.131 95.7375V62.6188C122.131 59.6 119.662 57.1375 116.65 57.1375H83.5312C80.5125 57.1375 78.05 59.6063 78.05 62.6188V95.7375C78.05 98.7563 80.5187 101.219 83.5312 101.219ZM82.8687 102.1H117.312C120.45 102.1 123.019 99.5313 123.019 96.3938V61.95C123.019 58.8125 120.45 56.2438 117.312 56.2438H82.8687C79.7312 56.2438 77.1625 58.8125 77.1625 61.95V96.3938C77.1625 99.5313 79.7312 102.1 82.8687 102.1Z" fill="#002C4B"/>
<path fill-rule="evenodd" clip-rule="evenodd" d="M102.944 82.225L101.894 83.275C98.425 79.8187 92.5938 80.0375 88.8563 83.775C85.1188 87.5125 84.9 93.3437 88.3563 96.8125L87.3063 97.8625C81.0063 81.1437 86 75.7125 102.938 82.2313" fill="#002C4B"/>
<path fill-rule="evenodd" clip-rule="evenodd" d="M103.138 76.325L104.188 77.375C100.731 80.8438 100.95 86.675 104.688 90.4125C108.425 94.15 114.256 94.375 117.725 90.9125L118.775 91.9625C102.056 98.2625 96.625 93.2688 103.144 76.3313" fill="#002C4B"/>
<path fill-rule="evenodd" clip-rule="evenodd" d="M97.0375 76.325L95.9875 77.375C99.4438 80.8438 99.225 86.675 95.4875 90.4125C91.75 94.15 85.9187 94.375 82.45 90.9125L81.4 91.9625C98.1188 98.2625 103.55 93.2688 97.0312 76.3313" fill="#002C4B"/>
<path fill-rule="evenodd" clip-rule="evenodd" d="M97.2375 82.225L98.2875 83.275C101.756 79.8187 107.587 80.0375 111.325 83.775C115.062 87.5125 115.281 93.3437 111.825 96.8125L112.875 97.8625C119.175 81.1437 114.181 75.7125 97.2437 82.2313" fill="#002C4B"/>
<path fill-rule="evenodd" clip-rule="evenodd" d="M118.775 66.3938L117.725 67.4438C114.256 63.9875 108.425 64.2063 104.687 67.9438C100.95 71.6813 100.731 77.5125 104.187 80.9813L103.138 82.0313C96.8375 65.3125 101.831 59.8813 118.769 66.4" fill="#A77B18"/>
<path fill-rule="evenodd" clip-rule="evenodd" d="M87.3063 60.4938L88.3563 61.5375C84.9 65.0063 85.1188 70.8375 88.8563 74.575C92.5938 78.3125 98.425 78.5313 101.894 75.075L102.944 76.125C86.225 82.425 80.7938 77.4313 87.3125 60.4938" fill="#002C4B"/>
<path fill-rule="evenodd" clip-rule="evenodd" d="M112.875 60.4938L111.825 61.5375C115.281 65.0063 115.062 70.8375 111.325 74.575C107.587 78.3125 101.756 78.5313 98.2875 75.075L97.2375 76.125C113.956 82.425 119.387 77.4313 112.869 60.4938" fill="#A77B18"/>
<path fill-rule="evenodd" clip-rule="evenodd" d="M81.4062 66.3938L82.4562 67.4438C85.925 63.9875 91.7562 64.2063 95.4937 67.9438C99.2312 71.6813 99.45 77.5125 95.9937 80.9813L97.0438 82.0313C103.344 65.3125 98.35 59.8813 81.4125 66.4" fill="#002C4B"/>
</svg>
