<svg width="200" height="200" viewBox="0 0 200 200" fill="none" xmlns="http://www.w3.org/2000/svg">
<path d="M106.494 110.569C105.213 110.444 103.588 109.569 102.731 108.613C101.481 107.231 101.081 105.263 100.106 103.781C100.056 103.706 100.031 103.594 99.9125 103.613C99.3 104.825 98.7813 106.125 98.1063 107.306C97.05 109.156 95.4 110.325 93.2563 110.563H86.7875L63.1188 62.6625L63.1438 62.4938H71.4C74.9875 62.7375 77.6125 64.6063 79.275 67.7125C80.5 69.9938 81.625 72.4438 82.7875 74.7688C86.4375 82.1 90.0313 89.4563 93.6563 96.8L100.025 84.275L112.981 110.55H106.5L106.494 110.569Z" fill="#034694"/>
<path d="M137.006 62.575L114.637 107.525L108.35 94.8812L107.837 93.6687C111.337 86.7187 114.712 79.7062 118.2 72.75C120.5 68.1562 122.219 63.0875 128.219 62.5687H137.012L137.006 62.575Z" fill="#27AAE2"/>
<path d="M104.412 62.6688L104.594 62.8813C106.787 67.5938 109.325 72.1563 111.537 76.8563C111.656 77.1125 112.025 77.7938 112.075 77.9938C112.106 78.1188 112.094 78.2063 112.037 78.3188L106.262 89.9875L106.1 90.0813L99.875 77.5563L93.6875 90.0813L87.7687 78.2563L87.7437 78.0625L95.3875 62.6813L104.419 62.6688H104.412Z" fill="#1A75BC"/>
</svg>
