<svg width="200" height="200" viewBox="125.8 65.5 68.9 68.9" fill="none" xmlns="http://www.w3.org/2000/svg">
<path d="M142.075 81.8313V101.588H145.725L141.987 108.169L142.044 127.563L168.687 81.9126H157.281L147.331 99.1188L143.45 99.175L153.425 81.8313H142.075Z" fill="#C6872F"/>
<path d="M142.075 81.8313H153.431L143.45 99.175L147.331 99.1188L157.281 81.9126H168.687V81.9188L142.044 127.563L141.987 108.169L145.725 101.588H142.075V81.8313Z" fill="#C6872F"/>
<path fill-rule="evenodd" clip-rule="evenodd" d="M139.237 78.9375V79.8937V120.031V120.981H140.194H141.175V120.031H140.194V79.8937H172.644L173.281 78.9375H140.194H139.237Z" fill="#C6872F"/>
<path d="M151.662 118L178.306 118.169L178.225 98.4062L174.512 98.4375L178.281 91.8625V72.4375L151.662 118ZM176.887 100.831L168.369 115.656H164.512L173.125 100.844L176.887 100.831Z" fill="#200B09"/>
<path d="M151.662 118L178.306 118.169L178.225 98.4063L174.512 98.4313L178.281 91.8563V72.4313L151.662 117.994V118ZM164.512 115.65L173.125 100.844L176.887 100.831L168.369 115.656H164.512V115.65Z" fill="#884B39"/>
<path fill-rule="evenodd" clip-rule="evenodd" d="M181.25 78.9375H180.294H179.344V79.8937H180.294V120.031H147.806L147.275 120.981H180.294H181.25V120.031V79.8937V78.9375Z" fill="#884B39"/>
</svg>
